# xmcd CD database file
#
# Track frame offsets:
#	150
#	18275
#	40107
#	55332
#	71560
#	85217
#	102407
#	117237
#	135092
#	179740
#	194925
#	248200
#
# Disc length: 3417 seconds
#
# Revision: 0
# Processed by: cddbd v1.5.1PL2 Copyright (c) Steve Scherf et al.
# Submitted via: CDex 1.70beta2
#
DISCID=a90d570c
DTITLE=Wim Mertens - best of
DYEAR=2006
DGENRE=New Age
TTITLE0=Struggle for pleasure
TTITLE1=Birds for the mind
TTITLE2=Close cover
TTITLE3=Their duet
TTITLE4=Humility
TTITLE5=Often a bird
TTITLE6=4 mains
TTITLE7=No testament
TTITLE8=Iris
TTITLE9=Hors-nature
TTITLE10=Maximizing the audience
TTITLE11=The scene
EXTD=YEAR: 2006
EXTT0=
EXTT1=
EXTT2=
EXTT3=
EXTT4=
EXTT5=
EXTT6=
EXTT7=
EXTT8=
EXTT9=
EXTT10=
EXTT11=
PLAYORDER=
